<?xml version="1.0" encoding="utf-8"?>
<!-- Generator: Adobe Illustrator 15.1.0, SVG Export Plug-In . SVG Version: 6.00 Build 0)  -->
<!DOCTYPE svg PUBLIC "-//W3C//DTD SVG 1.1//EN" "http://www.w3.org/Graphics/SVG/1.1/DTD/svg11.dtd">
<svg version="1.1" id="Layer_1" xmlns="http://www.w3.org/2000/svg" xmlns:xlink="http://www.w3.org/1999/xlink" x="0px" y="0px"
 width="612px" height="792px" viewBox="0 0 612 792" enable-background="new 0 0 612 792" xml:space="preserve">
<g>
	<path fill="#FFFFFF" stroke="#000000" stroke-width="0.25" d="M346.416,374.151c0.791,1.583,0.735,3.254,0.984,4.346c0.551,2.41-0.107,5.092-0.943,6.362c-4.495,6.815-7.463,4.905-14.666,2.75c-1.5,2.375-2.542,4-4.375,6.167c1.125,1.629,2.483,4.375,3.609,6.004c1.163,2.192,1.121,3.615,2.282,5.692c3.78,0.32,18.303,0.139,21.024-0.613c0.024-0.157,0.016-3.258,0.041-3.417c4.792-14.417,17.025-5.362,18.294,5.452c1.397,11.902-13.958,12.277-17.252,2.881 c-6.6,0.282-12.823,1.652-19.422,1.936c0.13,3.606,0.532,5.495,0.532,7.608c0,5.347-3.423,10.943-5.86,13.04c1.064,2.849,12.282,12.255,15.417,13.916c2.166-2.75,6.543-4.327,10.873-3.427c6.46,1.344,10.293,9.844,7.377,17.76c0.072-0.229-0.267,0.943-0.443,1.179c-7.5,17.916-29.974,10.988-22.974-9.678c-0.024-0.062-14.106-15.038-15.056-15.486c-2.076,2.273-12.575,3.521-16.361,3.758c-0.09,0.062-0.344-0.031-0.333,0.146c0.192-0.6-1.042,17-0.667,20.833c7.834,2.167,12.333,8.667,4.17,13.788c-5.854,3.673-24.443-0.096-18.507-9.149c1.891-3.048,4.004-3.973,7.716-4.401c0.705-6.653,1.202-14.616,0.955-22.153c1.55,0.181-7-0.833-15.75-7c-6.5,5.25-14.163,12.192-19,16.667c-0.378,0.351-2.667,3.333-5,5.5c1.25,1.458,2.125,3.333,2.5,5.167c0.208,2.499-0.678,3.439-1.072,4.83c-1.595,2.503-4.416,6.168-12.097,1.301c-4.073-2.579-14.163-16.886-3.841-19.284c2.748-0.336,9.344,2.194,10.011,2.902c0.5-0.75,13.561-13.771,5.771-6.066c-4.44,4.391,9.946-9.049,14.044-12.414c1.799-1.479,1.828-1.819,3.518-3.603c-2-3.666-2.325-4.228-3.5-6.75c-1.029-3.313-2.325-6.311-3.354-9.625c-7.312-0.78-15.71-1.11-19.97-1.125c-0.022,0.39,0.188,4.438-3.405,7.031c-1.428,0.912-8.626,2.313-11.269-2.681c-2.992-5.655,0.05-15.245,5.502-16.881c6.583-1.977,8.421,7.05,8.672,8.279c0,0,18.753-0.793,19.906-0.875c0.498-2.188,1.19-4.123,1.688-6.312c1.604-3.792,2.675-4.776,4.455-7.423c-2.508-2.651-5.016-5.303-7.521-7.952c-2.83,1.021-6.001,3.144-10.496,0.646c-7.328-4.072-2.531-16.276,2.987-19.765c10.888-6.881,17.26-0.956,16.517,7.875c-0.296,3.516-2.004,5.182-3.379,7.349c2.008,2.736,4.298,5.661,6.307,8.397c2.48-1.4,4.287-2.595,7.007-3.626c3.594-0.969,6.688-1.438,10.104-1.812c0.417-4-0.812-21.848-1.917-26.375c-7.41-0.303-11.422-8.87-5.727-14.082c2.083-1.905,11.644-5.449,16.477-3.793c2.275,0.78,3.25,1.562,4.871,3.911c1.066,3.339,0.838,10.881-8.787,13.256c0.188,8.938,1.916,18.583,1.166,27.5c5.594,1.435,10.667,2.833,14.333,6.333c2.459-2.083,3.193-2.188,4.584-4.25c-0.672-0.953-1.214-1.266-1.367-1.497c-2.457-2.546-4.209-5.323-4.456-8.938c0.198-2.356,0.864-2.939,1.53-3.65c2.948-3.366,12.409-6.062,18.418-2.456C343.582,369.526,344.166,369.526,346.416,374.151z"/>
<path fill="#FFFFFF" stroke="#000000" stroke-width="0.25" d="M242.874,406.849c-0.353,1.269-0.625,4.427,0.883,6.256c0.146,0.071,2.431,2.463,6.131,1.185c0.471-0.355,0.928-0.363,1.518-1.722c2.359-5.056-1.594-13.25-4.875-11.562C244.187,402.537,243.707,404.724,242.874,406.849z"/>
<path fill="#FFFFFF" stroke="#000000" stroke-width="0.25" d="M248.485,455.108c0.771,2.456,8.309,11.845,11.39,8.061c0.726-0.507,2.221-1.988,1.969-3.34c-0.839-3.216-6.053-9.098-11.511-8.219C249.333,452.235,248.124,451.776,248.485,455.108z"/>
<path fill="#FFFFFF" stroke="#000000" stroke-width="0.25" d="M263.446,376.851c0.678,1.592,0.428,2.217,2.756,3.42c6.741,1.02,13.672-8.516,10.109-12.891C271.548,363.305,261.687,370.443,263.446,376.851z"/>
<path fill="#FFFFFF" stroke="#000000" stroke-width="0.25" d="M285.999,407.026c-0.333,3.083,0,4.417,1.223,7.646c2.066,4.47,5.106,8.306,9.147,11.601c9.708,7.915,22.716,1.984,27.916-4.703c2.181-2.805,1.311-12.283,0.356-14.999c-2.952-8.41-7.899-12.316-18.07-15.153c-0.033-0.009-2.749-0.777-5.321-0.641c-2.531,0.136-3.188,0.104-6.688,1.354c0.617-0.086-1.945,0.829-2.312,1.312C289.499,396.13,286.837,401.018,285.999,407.026z"/>
<path fill="#FFFFFF" stroke="#000000" stroke-width="0.25" d="M296.385,348.578c0.285,0.989-0.059,1.381,1.498,2.899c2.709,1.949,16.824-0.328,13.263-8.893c-2.834-2.83-11.037,0.106-13.43,2.068C296.452,346.177,296.187,346.662,296.385,348.578z"/>
<path fill="#FFFFFF" stroke="#000000" stroke-width="0.25" d="M298.041,469.402c2.67,4.11,8.303,4.109,12.875,2.125c1.167-0.583,2.833-1.833,1.457-3.95c-3.056-2.584-9.416-4.3-13.54-0.376C297.78,468.24,297.791,467.902,298.041,469.402z"/>
<path fill="#FFFFFF" stroke="#000000" stroke-width="0.25" d="M327.523,375.925c2.435,5.67,3.232,7.334,10.852,8.435c2.57,0.426,3.292-1.208,3.627-2.319c0.615-2.671-0.291-6.706-1.627-7.926c-5.691-5.462-10.616-2.63-12.33-0.604C327.499,374.61,327.374,374.818,327.523,375.925z"/>
<path fill="#FFFFFF" stroke="#000000" stroke-width="0.25" d="M345.166,459.526c0.333,3.167,0.258,3.069,2.167,4.913c7.342,4.669,15.416-9.746,10.583-14.496C352.249,444.61,346.076,451.984,345.166,459.526z"/>
<path fill="#FFFFFF" stroke="#000000" stroke-width="0.25" d="M358.141,403.453c0.441,3.906,0.933,6.144,3.416,7.809c4.275,3.641,6.285-0.412,7.16-2.99c0.281-4.078-0.836-5.678-1.01-6.12c-2.094-2.077-1.795-3.068-5.625-3.542c-0.828,0.047-2.318,0.928-2.957,1.596C358.343,401.271,358.077,402.13,358.141,403.453z"/>
</g>
</svg>
